<?xml version="1.0" encoding="UTF-8"?>
<svg id="Layer_2" data-name="Layer 2" xmlns="http://www.w3.org/2000/svg" viewBox="0 0 246.51 166.47">
  <defs>
    <style>
      .cls-1 {
        fill: #fff;
        font-family: Magistral-BoldItalic, Magistral;
        font-size: 13.55px;
        font-style: italic;
        font-weight: 700;
      }

      .cls-2 {
        letter-spacing: 0em;
      }

      .cls-3 {
        letter-spacing: 0em;
      }

      .cls-4 {
        letter-spacing: -.02em;
      }

      .cls-5 {
        letter-spacing: 0em;
      }

      .cls-6 {
        letter-spacing: 0em;
      }

      .cls-7 {
        letter-spacing: 0em;
      }

      .cls-8 {
        letter-spacing: 0em;
      }

      .cls-9 {
        letter-spacing: 0em;
      }

      .cls-10 {
        letter-spacing: 0em;
      }

      .cls-11 {
        letter-spacing: 0em;
      }

      .cls-12 {
        letter-spacing: 0em;
      }

      .cls-13 {
        letter-spacing: 0em;
      }

      .cls-14 {
        letter-spacing: 0em;
      }

      .cls-15 {
        fill: #0b1b2f;
      }
    </style>
  </defs>
  <g id="Layer_1-2" data-name="Layer 1">
    <g>
      <path class="cls-15" d="M84.71,144.13l-16.2,22.35h178.01L141.43,10.07c-3.69-5.65-9.58-10.07-17.43-10.07s-14,4.91-17.44,10.07L0,166.47h31.43l42.39-62.74c4.53,4.54,15.78,13.44,17.94,14.87,7.54,4.99,18.08,10.11,27.18,10.9,20.44,1.79,39.42-11.92,53.28-25.91l26.91,40.54h-114.42ZM97,112.99l-15.07-11.86,15.07-11.86c-2.96,7.87-2.97,15.82,0,23.71ZM123.14,122.44c-11.72,0-21.22-9.5-21.22-21.22s9.5-21.22,21.22-21.22,21.22,9.5,21.22,21.22-9.5,21.22-21.22,21.22ZM149.47,112.99c.31-3.08,1.77-5.97,2.06-9.07.48-5.2-.66-9.85-2.42-14.65l15.43,11.86-15.07,11.86ZM119.14,72.96c-13.33,1.31-26.22,9.07-36.83,18.21l41.19-60.97,40.46,60.94c-12.74-10.79-28.42-19.8-44.82-18.19Z"/>
      <path class="cls-15" d="M126.6,98.01l3.65-7.39c-3.75-2.49-8.55-2.8-12.58-.81-6.21,3.07-8.8,10.7-5.73,16.91,3.07,6.21,10.7,8.8,16.91,5.73,6.21-3.07,8.8-10.7,5.73-16.91l-7.98,2.47Z"/>
    </g>
    <text class="cls-1" transform="translate(87.66 159.9)"><tspan class="cls-6" x="0" y="0">D</tspan><tspan class="cls-3" x="10.38" y="0">e</tspan><tspan class="cls-5" x="18.48" y="0">fi</tspan><tspan class="cls-11" x="26.86" y="0">n</tspan><tspan class="cls-7" x="35.08" y="0">i</tspan><tspan class="cls-12" x="38.35" y="0">t</tspan><tspan class="cls-2" x="43.59" y="0">e</tspan><tspan class="cls-14" x="51.67" y="0">l</tspan><tspan x="54.98" y="0">y </tspan><tspan class="cls-10" x="66.51" y="0">N</tspan><tspan class="cls-8" x="77.68" y="0">o</tspan><tspan x="86.27" y="0">t A </tspan><tspan class="cls-4" x="108.1" y="0">C</tspan><tspan class="cls-6" x="116.79" y="0">u</tspan><tspan class="cls-9" x="125.21" y="0">l</tspan><tspan class="cls-13" x="128.47" y="0">t</tspan><tspan x="133.69" y="0">!</tspan></text>
  </g>
</svg>