<?xml version="1.0" encoding="UTF-8"?>
<svg id="Layer_2" data-name="Layer 2" xmlns="http://www.w3.org/2000/svg" viewBox="0 0 109.09 148.62">
  <defs>
    <style>
      .cls-1 {
        fill: #231f20;
      }
    </style>
  </defs>
  <g id="Layer_1-2" data-name="Layer 1">
    <path class="cls-1" d="M106.51,0H0v11.71h28.03v11.26H9.71v6.6h39.24v-6.6h-18.33v-11.26h22.63v36.55h-9.31v-13.33H14.7v29.24h29.24v-13.33h9.31v20.2l-24.22,11.34,24.22,11.46v10.74h-19.82c-5.15,0-9.34,4.19-9.34,9.34v4.18c0,5.15,4.19,9.34,9.34,9.34h19.82v9.46H15.59v11.71h77.92v-11.71h-37.67v-9.46h20.98c5.15,0,9.34-4.19,9.34-9.34v-4.18c0-5.15-4.19-9.34-9.34-9.34h-20.98v-10.8l24.11-11.49-24.11-11.28v-20.17h10.47v13.33h29.24v-29.24h-29.24v13.33h-10.47V11.71h23.79v11.26h-18.33v6.6h39.24v-6.6h-18.33v-11.26h26.87V0h-2.59ZM46.36,26.99H12.29v-1.43h34.06v1.43ZM41.36,61.59h-24.07v-24.07h24.07v24.07ZM90.92,146.04H18.18v-6.54h72.74v6.54ZM83.57,113.93v4.18c0,3.73-3.02,6.75-6.75,6.75h-43.39c-3.73,0-6.75-3.02-6.75-6.75v-4.18c0-3.73,3.02-6.75,6.75-6.75h43.39c3.73,0,6.75,3.02,6.75,6.75ZM54.49,91.57l-19.38-9.17,19.46-9.11,19.31,9.04-19.39,9.25ZM68.9,37.52h24.07v24.07h-24.07v-24.07ZM97.96,26.99h-34.06v-1.43h34.06v1.43ZM106.51,9.12H2.59V2.59h103.92v6.54Z"/>
  </g>
</svg>