<?xml version="1.0" encoding="UTF-8"?>
<svg id="Layer_2" data-name="Layer 2" xmlns="http://www.w3.org/2000/svg" viewBox="0 0 226.22 131.21">
  <defs>
    <style>
      .cls-1 {
        fill: #231f20;
      }
    </style>
  </defs>
  <g id="Layer_1-2" data-name="Layer 1">
    <g>
      <path class="cls-1" d="M40.42,82.04l15.08-20.75h20.27c4.83,0,10.5,0,14.36.24-2.17-2.9-5.55-7.84-8.2-11.7l-14.48-21.35-37.88,53.57H0L51.76,9.05c3.38-4.71,8.32-9.05,16.17-9.05s12.43,3.98,15.92,9.05l50.43,72.99H40.42Z"/>
      <path class="cls-1" d="M202.38,50.5l-16.17,20.99h-49.22v10.5h60.81l-15.2,19.67h-45.61v29.56h-25.1V50.5h90.49Z"/>
      <path class="cls-1" d="M214.81,56.72h-2.93v9.96h-2.42v-9.96h-2.97v-2.72h8.32v2.72ZM226.22,66.68h-2.46v-4.75l-1.7,4.75h-1.86l-1.7-4.71v4.71h-2.46v-12.67h2.22l2.89,8.01,2.85-8.01h2.22v12.67Z"/>
    </g>
  </g>
</svg>