<?xml version="1.0" encoding="UTF-8"?>
<svg id="Layer_2" data-name="Layer 2" xmlns="http://www.w3.org/2000/svg" viewBox="0 0 577.92 148.62">
  <defs>
    <style>
      .cls-1 {
        letter-spacing: -.13em;
      }

      .cls-2, .cls-3, .cls-4 {
        fill: #231f20;
      }

      .cls-5 {
        letter-spacing: 0em;
      }

      .cls-6 {
        letter-spacing: .02em;
      }

      .cls-7 {
        letter-spacing: .02em;
      }

      .cls-8 {
        letter-spacing: .03em;
      }

      .cls-9 {
        letter-spacing: .04em;
      }

      .cls-10 {
        letter-spacing: -.02em;
      }

      .cls-11 {
        letter-spacing: 0em;
      }

      .cls-12 {
        letter-spacing: 0em;
      }

      .cls-13 {
        letter-spacing: -.01em;
      }

      .cls-14 {
        letter-spacing: 0em;
      }

      .cls-15 {
        letter-spacing: -.01em;
      }

      .cls-16 {
        letter-spacing: 0em;
      }

      .cls-17 {
        letter-spacing: 0em;
      }

      .cls-3 {
        font-family: Magistral-MediumItalic, Magistral;
        font-size: 18.52px;
        font-style: italic;
        font-weight: 500;
      }

      .cls-18 {
        letter-spacing: .01em;
      }

      .cls-19 {
        letter-spacing: .02em;
      }

      .cls-20 {
        letter-spacing: 0em;
      }

      .cls-4 {
        font-family: EthnocentricRg-Regular, Ethnocentric;
        font-size: 49px;
      }

      .cls-21 {
        letter-spacing: 0em;
      }
    </style>
  </defs>
  <g id="Layer_1-2" data-name="Layer 1">
    <path class="cls-2" d="M106.51,0H0v11.71h28.03v11.26H9.71v6.6h39.24v-6.6h-18.33v-11.26h22.63v36.55h-9.31v-13.33H14.7v29.24h29.24v-13.33h9.31v20.2l-24.22,11.34,24.22,11.46v10.74h-19.82c-5.15,0-9.34,4.19-9.34,9.34v4.18c0,5.15,4.19,9.34,9.34,9.34h19.82v9.46H15.59v11.71h77.92v-11.71h-37.67v-9.46h20.98c5.15,0,9.34-4.19,9.34-9.34v-4.18c0-5.15-4.19-9.34-9.34-9.34h-20.98v-10.8l24.11-11.49-24.11-11.28v-20.17h10.47v13.33h29.24v-29.24h-29.24v13.33h-10.47V11.71h23.79v11.26h-18.33v6.6h39.24v-6.6h-18.33v-11.26h26.87V0h-2.59ZM46.36,26.99H12.29v-1.43h34.06v1.43ZM41.36,61.59h-24.07v-24.07h24.07v24.07ZM90.92,146.04H18.18v-6.54h72.74v6.54ZM83.57,113.93v4.18c0,3.73-3.02,6.75-6.75,6.75h-43.39c-3.73,0-6.75-3.02-6.75-6.75v-4.18c0-3.73,3.02-6.75,6.75-6.75h43.39c3.73,0,6.75,3.02,6.75,6.75ZM54.49,91.57l-19.38-9.17,19.46-9.11,19.31,9.04-19.39,9.25ZM68.9,37.52h24.07v24.07h-24.07v-24.07ZM97.96,26.99h-34.06v-1.43h34.06v1.43ZM106.51,9.12H2.59V2.59h103.92v6.54Z"/>
    <g>
      <text class="cls-4" transform="translate(110.24 64.18)"><tspan class="cls-12" x="0" y="0">A</tspan><tspan class="cls-13" x="55.33" y="0">l</tspan><tspan class="cls-11" x="93.57" y="0">g</tspan><tspan class="cls-15" x="140.19" y="0">o</tspan><tspan class="cls-20" x="191.69" y="0">C</tspan><tspan class="cls-6" x="236.71" y="0">r</tspan><tspan class="cls-1" x="287.91" y="0">a</tspan><tspan class="cls-5" x="336.92" y="0">t</tspan><tspan class="cls-17" x="380.63" y="0">i</tspan><tspan x="396.78" y="0">c </tspan><tspan class="cls-21" x="0" y="44.79">F</tspan><tspan class="cls-16" x="40.19" y="44.79">ut</tspan><tspan class="cls-14" x="132.73" y="44.79">u</tspan><tspan class="cls-12" x="180.87" y="44.79">r</tspan><tspan class="cls-10" x="230.71" y="44.79">e</tspan><tspan class="cls-19" x="271.5" y="44.79">s</tspan></text>
      <text class="cls-4" transform="translate(429.82 92.66) scale(.58)"><tspan x="0" y="0">™</tspan></text>
      <text class="cls-3" transform="translate(110.25 136.88)"><tspan class="cls-8" x="0" y="0">Imme</tspan><tspan class="cls-9" x="48.83" y="0">r</tspan><tspan class="cls-8" x="55.84" y="0">sive </tspan><tspan class="cls-7" x="97.13" y="0">L</tspan><tspan class="cls-8" x="108.95" y="0">earning </tspan><tspan class="cls-9" x="180.86" y="0">E</tspan><tspan class="cls-8" x="193.65" y="0">xperien</tspan><tspan class="cls-18" x="259.53" y="0">c</tspan><tspan class="cls-8" x="269.25" y="0">e</tspan></text>
    </g>
    <g>
      <text class="cls-4" transform="translate(110.24 64.18)"><tspan class="cls-12" x="0" y="0">A</tspan><tspan class="cls-13" x="55.33" y="0">l</tspan><tspan class="cls-11" x="93.57" y="0">g</tspan><tspan class="cls-15" x="140.19" y="0">o</tspan><tspan class="cls-20" x="191.69" y="0">C</tspan><tspan class="cls-6" x="236.71" y="0">r</tspan><tspan class="cls-1" x="287.91" y="0">a</tspan><tspan class="cls-5" x="336.92" y="0">t</tspan><tspan class="cls-17" x="380.63" y="0">i</tspan><tspan x="396.78" y="0">c </tspan><tspan class="cls-21" x="0" y="44.79">F</tspan><tspan class="cls-16" x="40.19" y="44.79">ut</tspan><tspan class="cls-14" x="132.73" y="44.79">u</tspan><tspan class="cls-12" x="180.87" y="44.79">r</tspan><tspan class="cls-10" x="230.71" y="44.79">e</tspan><tspan class="cls-19" x="271.5" y="44.79">s</tspan></text>
      <text class="cls-4" transform="translate(429.82 92.66) scale(.58)"><tspan x="0" y="0">™</tspan></text>
      <text class="cls-3" transform="translate(110.25 136.88)"><tspan class="cls-8" x="0" y="0">Imme</tspan><tspan class="cls-9" x="48.83" y="0">r</tspan><tspan class="cls-8" x="55.84" y="0">sive </tspan><tspan class="cls-7" x="97.13" y="0">L</tspan><tspan class="cls-8" x="108.95" y="0">earning </tspan><tspan class="cls-9" x="180.86" y="0">E</tspan><tspan class="cls-8" x="193.65" y="0">xperien</tspan><tspan class="cls-18" x="259.53" y="0">c</tspan><tspan class="cls-8" x="269.25" y="0">e</tspan></text>
    </g>
  </g>
</svg>